<svg viewBox="0 0 800 450" xmlns="http://www.w3.org/2000/svg" font-family="IBM Plex Mono, monospace">
<rect width="800" height="450" fill="#0b100e"/>
<line x1="0" y1="0" x2="0" y2="450" stroke="rgba(111,224,178,0.06)"/><line x1="100" y1="0" x2="100" y2="450" stroke="rgba(111,224,178,0.06)"/><line x1="200" y1="0" x2="200" y2="450" stroke="rgba(111,224,178,0.06)"/><line x1="300" y1="0" x2="300" y2="450" stroke="rgba(111,224,178,0.06)"/><line x1="400" y1="0" x2="400" y2="450" stroke="rgba(111,224,178,0.06)"/><line x1="500" y1="0" x2="500" y2="450" stroke="rgba(111,224,178,0.06)"/><line x1="600" y1="0" x2="600" y2="450" stroke="rgba(111,224,178,0.06)"/><line x1="700" y1="0" x2="700" y2="450" stroke="rgba(111,224,178,0.06)"/><line x1="800" y1="0" x2="800" y2="450" stroke="rgba(111,224,178,0.06)"/><line x1="0" y1="0" x2="800" y2="0" stroke="rgba(111,224,178,0.06)"/><line x1="0" y1="90" x2="800" y2="90" stroke="rgba(111,224,178,0.06)"/><line x1="0" y1="180" x2="800" y2="180" stroke="rgba(111,224,178,0.06)"/><line x1="0" y1="270" x2="800" y2="270" stroke="rgba(111,224,178,0.06)"/><line x1="0" y1="360" x2="800" y2="360" stroke="rgba(111,224,178,0.06)"/><line x1="0" y1="450" x2="800" y2="450" stroke="rgba(111,224,178,0.06)"/>
<polygon points="114.2,91.0 114.2,119.0 90.0,133.0 65.8,119.0 65.8,91.0 90.0,77.0" fill="#f5d90a" fill-opacity="0.1338081990254621" stroke="rgba(11,16,14,1)" stroke-width="1"/><polygon points="170.2,91.0 170.2,119.0 146.0,133.0 121.8,119.0 121.8,91.0 146.0,77.0" fill="#ff6b35" fill-opacity="0.3573461885724637" stroke="rgba(11,16,14,1)" stroke-width="1"/><polygon points="226.2,91.0 226.2,119.0 202.0,133.0 177.8,119.0 177.8,91.0 202.0,77.0" fill="#ff6b35" fill-opacity="0.3147159488442895" stroke="rgba(11,16,14,1)" stroke-width="1"/><polygon points="282.2,91.0 282.2,119.0 258.0,133.0 233.8,119.0 233.8,91.0 258.0,77.0" fill="#ff6b35" fill-opacity="0.2035139499654661" stroke="rgba(11,16,14,1)" stroke-width="1"/><polygon points="338.2,91.0 338.2,119.0 314.0,133.0 289.8,119.0 289.8,91.0 314.0,77.0" fill="#ff6b35" fill-opacity="0.280972138786459" stroke="rgba(11,16,14,1)" stroke-width="1"/><polygon points="394.2,91.0 394.2,119.0 370.0,133.0 345.8,119.0 345.8,91.0 370.0,77.0" fill="#ff6b35" fill-opacity="0.3005172616483628" stroke="rgba(11,16,14,1)" stroke-width="1"/><polygon points="450.2,91.0 450.2,119.0 426.0,133.0 401.8,119.0 401.8,91.0 426.0,77.0" fill="#f5d90a" fill-opacity="0.15445017233522024" stroke="rgba(11,16,14,1)" stroke-width="1"/><polygon points="506.2,91.0 506.2,119.0 482.0,133.0 457.8,119.0 457.8,91.0 482.0,77.0" fill="#f5d90a" fill-opacity="0.12775935289421939" stroke="rgba(11,16,14,1)" stroke-width="1"/><polygon points="142.2,139.0 142.2,167.0 118.0,181.0 93.8,167.0 93.8,139.0 118.0,125.0" fill="#ff6b35" fill-opacity="0.2903834564419738" stroke="rgba(11,16,14,1)" stroke-width="1"/><polygon points="198.2,139.0 198.2,167.0 174.0,181.0 149.8,167.0 149.8,139.0 174.0,125.0" fill="#ff6b35" fill-opacity="0.1947625167790803" stroke="rgba(11,16,14,1)" stroke-width="1"/><polygon points="254.2,139.0 254.2,167.0 230.0,181.0 205.8,167.0 205.8,139.0 230.0,125.0" fill="#f5d90a" fill-opacity="0.09161738229973594" stroke="rgba(11,16,14,1)" stroke-width="1"/><polygon points="310.2,139.0 310.2,167.0 286.0,181.0 261.8,167.0 261.8,139.0 286.0,125.0" fill="#ff6b35" fill-opacity="0.2212070063257971" stroke="rgba(11,16,14,1)" stroke-width="1"/><polygon points="366.2,139.0 366.2,167.0 342.0,181.0 317.8,167.0 317.8,139.0 342.0,125.0" fill="#f5d90a" fill-opacity="0.13987184900772556" stroke="rgba(11,16,14,1)" stroke-width="1"/><polygon points="422.2,139.0 422.2,167.0 398.0,181.0 373.8,167.0 373.8,139.0 398.0,125.0" fill="#ff6b35" fill-opacity="0.35553557036884853" stroke="rgba(11,16,14,1)" stroke-width="1"/><polygon points="478.2,139.0 478.2,167.0 454.0,181.0 429.8,167.0 429.8,139.0 454.0,125.0" fill="#ff6b35" fill-opacity="0.1848975273337756" stroke="rgba(11,16,14,1)" stroke-width="1"/><polygon points="534.2,139.0 534.2,167.0 510.0,181.0 485.8,167.0 485.8,139.0 510.0,125.0" fill="#ff6b35" fill-opacity="0.3261609142914686" stroke="rgba(11,16,14,1)" stroke-width="1"/><polygon points="114.2,187.0 114.2,215.0 90.0,229.0 65.8,215.0 65.8,187.0 90.0,173.0" fill="#ff6b35" fill-opacity="0.34139691075890244" stroke="rgba(11,16,14,1)" stroke-width="1"/><polygon points="170.2,187.0 170.2,215.0 146.0,229.0 121.8,215.0 121.8,187.0 146.0,173.0" fill="#f5d90a" fill-opacity="0.14687706416174268" stroke="rgba(11,16,14,1)" stroke-width="1"/><polygon points="226.2,187.0 226.2,215.0 202.0,229.0 177.8,215.0 177.8,187.0 202.0,173.0" fill="#ff6b35" fill-opacity="0.2780099548245887" stroke="rgba(11,16,14,1)" stroke-width="1"/><polygon points="282.2,187.0 282.2,215.0 258.0,229.0 233.8,215.0 233.8,187.0 258.0,173.0" fill="#ff6b35" fill-opacity="0.19953979356943505" stroke="rgba(11,16,14,1)" stroke-width="1"/><polygon points="338.2,187.0 338.2,215.0 314.0,229.0 289.8,215.0 289.8,187.0 314.0,173.0" fill="#f5d90a" fill-opacity="0.1635809183069012" stroke="rgba(11,16,14,1)" stroke-width="1"/><polygon points="394.2,187.0 394.2,215.0 370.0,229.0 345.8,215.0 345.8,187.0 370.0,173.0" fill="#f5d90a" fill-opacity="0.10082622639884598" stroke="rgba(11,16,14,1)" stroke-width="1"/><polygon points="450.2,187.0 450.2,215.0 426.0,229.0 401.8,215.0 401.8,187.0 426.0,173.0" fill="#ff6b35" fill-opacity="0.3119979912321083" stroke="rgba(11,16,14,1)" stroke-width="1"/><polygon points="506.2,187.0 506.2,215.0 482.0,229.0 457.8,215.0 457.8,187.0 482.0,173.0" fill="#ff6b35" fill-opacity="0.18534383872482568" stroke="rgba(11,16,14,1)" stroke-width="1"/><polygon points="142.2,235.0 142.2,263.0 118.0,277.0 93.8,263.0 93.8,235.0 118.0,221.0" fill="#ff6b35" fill-opacity="0.23282170265841123" stroke="rgba(11,16,14,1)" stroke-width="1"/><polygon points="198.2,235.0 198.2,263.0 174.0,277.0 149.8,263.0 149.8,235.0 174.0,221.0" fill="#ff6b35" fill-opacity="0.28385543550807907" stroke="rgba(11,16,14,1)" stroke-width="1"/><polygon points="254.2,235.0 254.2,263.0 230.0,277.0 205.8,263.0 205.8,235.0 230.0,221.0" fill="#ff6b35" fill-opacity="0.3330983489816242" stroke="rgba(11,16,14,1)" stroke-width="1"/><polygon points="310.2,235.0 310.2,263.0 286.0,277.0 261.8,263.0 261.8,235.0 286.0,221.0" fill="#ff6b35" fill-opacity="0.17934496046432213" stroke="rgba(11,16,14,1)" stroke-width="1"/><polygon points="366.2,235.0 366.2,263.0 342.0,277.0 317.8,263.0 317.8,235.0 342.0,221.0" fill="#f5d90a" fill-opacity="0.08828016053589077" stroke="rgba(11,16,14,1)" stroke-width="1"/><polygon points="422.2,235.0 422.2,263.0 398.0,277.0 373.8,263.0 373.8,235.0 398.0,221.0" fill="#ff6b35" fill-opacity="0.3431115234726681" stroke="rgba(11,16,14,1)" stroke-width="1"/><polygon points="478.2,235.0 478.2,263.0 454.0,277.0 429.8,263.0 429.8,235.0 454.0,221.0" fill="#f5d90a" fill-opacity="0.15836455891706305" stroke="rgba(11,16,14,1)" stroke-width="1"/><polygon points="534.2,235.0 534.2,263.0 510.0,277.0 485.8,263.0 485.8,235.0 510.0,221.0" fill="#ff6b35" fill-opacity="0.25417692012161236" stroke="rgba(11,16,14,1)" stroke-width="1"/><polygon points="114.2,283.0 114.2,311.0 90.0,325.0 65.8,311.0 65.8,283.0 90.0,269.0" fill="#ff6b35" fill-opacity="0.37506517186492616" stroke="rgba(11,16,14,1)" stroke-width="1"/><polygon points="170.2,283.0 170.2,311.0 146.0,325.0 121.8,311.0 121.8,283.0 146.0,269.0" fill="#f5d90a" fill-opacity="0.09147715920597882" stroke="rgba(11,16,14,1)" stroke-width="1"/><polygon points="226.2,283.0 226.2,311.0 202.0,325.0 177.8,311.0 177.8,283.0 202.0,269.0" fill="#ff6b35" fill-opacity="0.2589713764963234" stroke="rgba(11,16,14,1)" stroke-width="1"/><polygon points="282.2,283.0 282.2,311.0 258.0,325.0 233.8,311.0 233.8,283.0 258.0,269.0" fill="#ff6b35" fill-opacity="0.18370613350394008" stroke="rgba(11,16,14,1)" stroke-width="1"/><polygon points="338.2,283.0 338.2,311.0 314.0,325.0 289.8,311.0 289.8,283.0 314.0,269.0" fill="#ff6b35" fill-opacity="0.3159284534611046" stroke="rgba(11,16,14,1)" stroke-width="1"/><polygon points="394.2,283.0 394.2,311.0 370.0,325.0 345.8,311.0 345.8,283.0 370.0,269.0" fill="#ff6b35" fill-opacity="0.2109181651611824" stroke="rgba(11,16,14,1)" stroke-width="1"/><polygon points="450.2,283.0 450.2,311.0 426.0,325.0 401.8,311.0 401.8,283.0 426.0,269.0" fill="#ff6b35" fill-opacity="0.37527075479497696" stroke="rgba(11,16,14,1)" stroke-width="1"/><polygon points="506.2,283.0 506.2,311.0 482.0,325.0 457.8,311.0 457.8,283.0 482.0,269.0" fill="#f5d90a" fill-opacity="0.11469373520879914" stroke="rgba(11,16,14,1)" stroke-width="1"/><polygon points="142.2,331.0 142.2,359.0 118.0,373.0 93.8,359.0 93.8,331.0 118.0,317.0" fill="#ff6b35" fill-opacity="0.3498514198733599" stroke="rgba(11,16,14,1)" stroke-width="1"/><polygon points="198.2,331.0 198.2,359.0 174.0,373.0 149.8,359.0 149.8,331.0 174.0,317.0" fill="#f5d90a" fill-opacity="0.13702363235068882" stroke="rgba(11,16,14,1)" stroke-width="1"/><polygon points="254.2,331.0 254.2,359.0 230.0,373.0 205.8,359.0 205.8,331.0 230.0,317.0" fill="#f5d90a" fill-opacity="0.09331596011396932" stroke="rgba(11,16,14,1)" stroke-width="1"/><polygon points="310.2,331.0 310.2,359.0 286.0,373.0 261.8,359.0 261.8,331.0 286.0,317.0" fill="#ff6b35" fill-opacity="0.2108172546364917" stroke="rgba(11,16,14,1)" stroke-width="1"/><polygon points="366.2,331.0 366.2,359.0 342.0,373.0 317.8,359.0 317.8,331.0 342.0,317.0" fill="#ff6b35" fill-opacity="0.23597610456997564" stroke="rgba(11,16,14,1)" stroke-width="1"/><polygon points="422.2,331.0 422.2,359.0 398.0,373.0 373.8,359.0 373.8,331.0 398.0,317.0" fill="#ff6b35" fill-opacity="0.3219532609100312" stroke="rgba(11,16,14,1)" stroke-width="1"/><polygon points="478.2,331.0 478.2,359.0 454.0,373.0 429.8,359.0 429.8,331.0 454.0,317.0" fill="#ff6b35" fill-opacity="0.286057144074358" stroke="rgba(11,16,14,1)" stroke-width="1"/><polygon points="534.2,331.0 534.2,359.0 510.0,373.0 485.8,359.0 485.8,331.0 510.0,317.0" fill="#ff6b35" fill-opacity="0.362078936119266" stroke="rgba(11,16,14,1)" stroke-width="1"/><rect x="560" y="70" width="200" height="320" fill="rgba(16,22,19,0.95)" stroke="rgba(36,48,42,1)"/><text x="576" y="98" font-size="10" letter-spacing="2" fill="#5c6b63">OVERALL SCORE</text><text x="576" y="130" font-size="26" fill="#6fe0b2">2.23</text><rect x="576" y="146" width="52" height="18" fill="rgba(111,224,178,0.15)" stroke="#6fe0b2"/><text x="584" y="159" font-size="10" fill="#6fe0b2">TIER 1</text><text x="576" y="195" font-size="9" letter-spacing="1" fill="#5c6b63">KOTA/KABUPATEN</text><rect x="576" y="202" width="84" height="6" fill="rgba(255,107,53,0.5)"/><text x="576" y="231" font-size="9" letter-spacing="1" fill="#5c6b63">KECAMATAN</text><rect x="576" y="238" width="76" height="6" fill="rgba(255,107,53,0.5)"/><text x="576" y="267" font-size="9" letter-spacing="1" fill="#5c6b63">KEPADATAN</text><rect x="576" y="274" width="140" height="6" fill="rgba(255,107,53,0.5)"/><text x="576" y="303" font-size="9" letter-spacing="1" fill="#5c6b63">SES</text><rect x="576" y="310" width="78" height="6" fill="rgba(255,107,53,0.5)"/><text x="576" y="339" font-size="9" letter-spacing="1" fill="#5c6b63">USIA PRODUKTIF</text><rect x="576" y="346" width="101" height="6" fill="rgba(255,107,53,0.5)"/><circle cx="260" cy="200" r="8" fill="#6fe0b2"/><circle cx="260" cy="200" r="16" fill="none" stroke="#6fe0b2" stroke-opacity="0.5"/>
<text x="24" y="38" font-size="13" letter-spacing="3" fill="rgba(111,224,178,0.65)">HIGHEST &amp; BEST USE — PLN</text>
<text x="24" y="424" font-size="11" letter-spacing="2" fill="rgba(92,107,99,0.95)">IDLE ASSET SCORING · STATE ELECTRICITY CO · PILOT 2022</text>
</svg>